<svg width="117" height="61" viewBox="0 0 117 61" fill="none" xmlns="http://www.w3.org/2000/svg">
<path d="M10.628 26.7561C8.636 26.7561 6.752 26.5041 4.976 26.0001C3.224 25.4961 1.76 24.8121 0.584 23.9481L2.204 19.5561C3.332 20.3481 4.616 20.9721 6.056 21.4281C7.52 21.8841 9.044 22.1121 10.628 22.1121C12.356 22.1121 13.592 21.8481 14.336 21.3201C15.104 20.7681 15.488 20.0841 15.488 19.2681C15.488 18.5721 15.224 18.0201 14.696 17.6121C14.168 17.2041 13.244 16.8561 11.924 16.5681L7.856 15.7041C3.32 14.7441 1.052 12.3921 1.052 8.64811C1.052 7.04011 1.484 5.63611 2.348 4.43611C3.212 3.21211 4.412 2.26411 5.948 1.59211C7.508 0.920107 9.308 0.584107 11.348 0.584107C13.1 0.584107 14.744 0.836106 16.28 1.34011C17.816 1.84411 19.088 2.55211 20.096 3.46411L18.476 7.56811C16.508 6.00811 14.12 5.22811 11.312 5.22811C9.8 5.22811 8.624 5.52811 7.784 6.12811C6.968 6.70411 6.56 7.46011 6.56 8.39611C6.56 9.09211 6.812 9.65611 7.316 10.0881C7.82 10.5201 8.696 10.8681 9.944 11.1321L14.012 11.9961C18.668 13.0041 20.996 15.2841 20.996 18.8361C20.996 20.4201 20.564 21.8121 19.7 23.0121C18.86 24.1881 17.66 25.1121 16.1 25.7841C14.564 26.4321 12.74 26.7561 10.628 26.7561ZM36.1385 32.8401V23.9481C35.6345 24.7881 34.8905 25.4721 33.9065 26.0001C32.9225 26.5041 31.8425 26.7561 30.6665 26.7561C29.1305 26.7561 27.7745 26.3841 26.5985 25.6401C25.4465 24.8721 24.5465 23.8041 23.8985 22.4361C23.2505 21.0441 22.9265 19.4001 22.9265 17.5041C22.9265 15.6081 23.2505 13.9761 23.8985 12.6081C24.5465 11.2401 25.4465 10.1841 26.5985 9.44011C27.7745 8.69611 29.1305 8.32411 30.6665 8.32411C31.9145 8.32411 33.0305 8.60011 34.0145 9.15211C35.0225 9.70411 35.7665 10.4361 36.2465 11.3481V8.68411H41.5745V32.8401H36.1385ZM32.2865 22.6881C33.4385 22.6881 34.3745 22.2681 35.0945 21.4281C35.8385 20.5881 36.2105 19.2801 36.2105 17.5041C36.2105 15.7521 35.8385 14.4681 35.0945 13.6521C34.3745 12.8121 33.4385 12.3921 32.2865 12.3921C31.1345 12.3921 30.1985 12.8121 29.4785 13.6521C28.7585 14.4681 28.3985 15.7521 28.3985 17.5041C28.3985 19.2801 28.7585 20.5881 29.4785 21.4281C30.1985 22.2681 31.1345 22.6881 32.2865 22.6881ZM51.9192 26.7561C49.6632 26.7561 47.9952 26.1321 46.9152 24.8841C45.8592 23.6361 45.3312 21.7641 45.3312 19.2681V8.68411H50.7672V19.4121C50.7672 21.5001 51.6672 22.5441 53.4672 22.5441C54.4992 22.5441 55.3392 22.1841 55.9872 21.4641C56.6592 20.7201 56.9952 19.7481 56.9952 18.5481V8.68411H62.4312V26.3601H57.1392V23.9481C55.9632 25.8201 54.2232 26.7561 51.9192 26.7561ZM72.2535 26.7561C70.9335 26.7561 69.7695 26.5041 68.7615 26.0001C67.7535 25.4961 66.9495 24.8121 66.3495 23.9481C65.7735 23.0841 65.4855 22.1121 65.4855 21.0321C65.4855 19.7601 65.8215 18.7401 66.4935 17.9721C67.1655 17.2041 68.2575 16.6641 69.7695 16.3521C71.2815 16.0161 73.2855 15.8481 75.7815 15.8481H77.0775V15.2361C77.0775 14.1801 76.8375 13.4361 76.3575 13.0041C75.8775 12.5481 75.0615 12.3201 73.9095 12.3201C72.9495 12.3201 71.9295 12.4761 70.8495 12.7881C69.7935 13.0761 68.7375 13.5201 67.6815 14.1201L66.2055 10.4841C66.8295 10.0761 67.5855 9.70411 68.4735 9.36811C69.3855 9.03211 70.3335 8.78011 71.3175 8.61211C72.3015 8.42011 73.2375 8.32411 74.1255 8.32411C76.8615 8.32411 78.9015 8.94811 80.2455 10.1961C81.5895 11.4201 82.2615 13.3281 82.2615 15.9201V26.3601H77.1855V23.6961C76.8255 24.6321 76.2135 25.3761 75.3495 25.9281C74.5095 26.4801 73.4775 26.7561 72.2535 26.7561ZM73.4775 23.1201C74.4855 23.1201 75.3375 22.7721 76.0335 22.0761C76.7295 21.3801 77.0775 20.4801 77.0775 19.3761V18.6561H75.8175C73.9695 18.6561 72.6615 18.8241 71.8935 19.1601C71.1255 19.4721 70.7415 20.0241 70.7415 20.8161C70.7415 21.4881 70.9695 22.0401 71.4255 22.4721C71.9055 22.9041 72.5895 23.1201 73.4775 23.1201ZM85.9566 26.3601V8.68411H91.2846V11.7441C92.1246 9.68011 93.9246 8.54011 96.6846 8.32411L98.2686 8.21611L98.5926 12.7881L95.5326 13.1121C92.8446 13.3761 91.5006 14.7441 91.5006 17.2161V26.3601H85.9566ZM109.296 26.7561C107.208 26.7561 105.408 26.3841 103.896 25.6401C102.408 24.8721 101.256 23.8041 100.44 22.4361C99.6481 21.0441 99.2521 19.4121 99.2521 17.5401C99.2521 15.7161 99.6361 14.1201 100.404 12.7521C101.196 11.3601 102.264 10.2801 103.608 9.51211C104.976 8.72011 106.548 8.32411 108.324 8.32411C110.892 8.32411 112.932 9.14011 114.444 10.7721C115.956 12.3801 116.712 14.5641 116.712 17.3241V18.6921H104.436C104.628 20.0841 105.132 21.1041 105.948 21.7521C106.788 22.3761 107.94 22.6881 109.404 22.6881C110.364 22.6881 111.336 22.5441 112.32 22.2561C113.304 21.9681 114.192 21.5241 114.984 20.9241L116.424 24.5601C115.536 25.2321 114.444 25.7721 113.148 26.1801C111.876 26.5641 110.592 26.7561 109.296 26.7561ZM108.54 11.9241C107.388 11.9241 106.452 12.2721 105.732 12.9681C105.036 13.6641 104.604 14.6361 104.436 15.8841H112.212C112.068 13.2441 110.844 11.9241 108.54 11.9241ZM13.868 60.7561C11.132 60.7561 8.792 60.2161 6.848 59.1361C4.904 58.0561 3.404 56.5441 2.348 54.6001C1.316 52.6321 0.8 50.3161 0.8 47.6521C0.8 45.0121 1.316 42.7201 2.348 40.7761C3.404 38.8081 4.904 37.2841 6.848 36.2041C8.792 35.1241 11.132 34.5841 13.868 34.5841C15.548 34.5841 17.156 34.8481 18.692 35.3761C20.228 35.9041 21.488 36.6241 22.472 37.5361L20.744 41.9641C19.664 41.1241 18.572 40.5121 17.468 40.1281C16.388 39.7201 15.248 39.5161 14.048 39.5161C11.624 39.5161 9.788 40.2241 8.54 41.6401C7.316 43.0321 6.704 45.0361 6.704 47.6521C6.704 50.2681 7.316 52.2841 8.54 53.7001C9.788 55.1161 11.624 55.8241 14.048 55.8241C15.248 55.8241 16.388 55.6321 17.468 55.2481C18.572 54.8401 19.664 54.2161 20.744 53.3761L22.472 57.8041C21.488 58.6921 20.228 59.4121 18.692 59.9641C17.156 60.4921 15.548 60.7561 13.868 60.7561ZM25.3022 60.3601V34.9801H30.7382V45.0961C31.3622 44.1841 32.1662 43.5001 33.1502 43.0441C34.1342 42.5641 35.2262 42.3241 36.4262 42.3241C40.5782 42.3241 42.6542 44.7961 42.6542 49.7401V60.3601H37.2182V49.9921C37.2182 48.7681 36.9902 47.8921 36.5342 47.3641C36.0782 46.8121 35.4062 46.5361 34.5182 46.5361C33.3662 46.5361 32.4422 46.8961 31.7462 47.6161C31.0742 48.3361 30.7382 49.2961 30.7382 50.4961V60.3601H25.3022ZM55.5324 60.7561C53.4444 60.7561 51.6444 60.3841 50.1324 59.6401C48.6444 58.8721 47.4924 57.8041 46.6764 56.4361C45.8844 55.0441 45.4884 53.4121 45.4884 51.5401C45.4884 49.7161 45.8724 48.1201 46.6404 46.7521C47.4324 45.3601 48.5004 44.2801 49.8444 43.5121C51.2124 42.7201 52.7844 42.3241 54.5604 42.3241C57.1284 42.3241 59.1684 43.1401 60.6804 44.7721C62.1924 46.3801 62.9484 48.5641 62.9484 51.3241V52.6921H50.6724C50.8644 54.0841 51.3684 55.1041 52.1844 55.7521C53.0244 56.3761 54.1764 56.6881 55.6404 56.6881C56.6004 56.6881 57.5724 56.5441 58.5564 56.2561C59.5404 55.9681 60.4284 55.5241 61.2204 54.9241L62.6604 58.5601C61.7724 59.2321 60.6804 59.7721 59.3844 60.1801C58.1124 60.5641 56.8284 60.7561 55.5324 60.7561ZM54.7764 45.9241C53.6244 45.9241 52.6884 46.2721 51.9684 46.9681C51.2724 47.6641 50.8404 48.6361 50.6724 49.8841H58.4484C58.3044 47.2441 57.0804 45.9241 54.7764 45.9241ZM74.3542 60.7561C72.4342 60.7561 70.7542 60.3841 69.3142 59.6401C67.8982 58.8721 66.8062 57.7921 66.0382 56.4001C65.2702 55.0081 64.8862 53.3641 64.8862 51.4681C64.8862 49.5721 65.2702 47.9401 66.0382 46.5721C66.8062 45.2041 67.8982 44.1601 69.3142 43.4401C70.7542 42.6961 72.4342 42.3241 74.3542 42.3241C75.4822 42.3241 76.6222 42.4921 77.7742 42.8281C78.9262 43.1641 79.8622 43.6441 80.5822 44.2681L79.0702 48.0121C78.4702 47.5321 77.7982 47.1601 77.0542 46.8961C76.3102 46.6081 75.5902 46.4641 74.8942 46.4641C73.4782 46.4641 72.3742 46.9081 71.5822 47.7961C70.8142 48.6601 70.4302 49.8961 70.4302 51.5041C70.4302 53.0881 70.8142 54.3361 71.5822 55.2481C72.3742 56.1361 73.4782 56.5801 74.8942 56.5801C75.5662 56.5801 76.2742 56.4481 77.0182 56.1841C77.7862 55.9201 78.4702 55.5361 79.0702 55.0321L80.5822 58.7761C79.8622 59.4001 78.9262 59.8921 77.7742 60.2521C76.6222 60.5881 75.4822 60.7561 74.3542 60.7561ZM82.5816 60.3601V34.9801H88.0176V49.9921H88.0896L94.6056 42.6841H101.05L93.5616 51.1441L101.41 60.3601H94.8576L88.0896 52.7281H88.0176V60.3601H82.5816ZM108.818 60.7561C107.258 60.7561 105.806 60.5761 104.462 60.2161C103.118 59.8561 102.002 59.3641 101.114 58.7401L102.41 55.2121C103.298 55.7641 104.306 56.2081 105.434 56.5441C106.586 56.8561 107.726 57.0121 108.854 57.0121C109.862 57.0121 110.606 56.8561 111.086 56.5441C111.566 56.2081 111.806 55.7761 111.806 55.2481C111.806 54.4081 111.194 53.8801 109.97 53.6641L106.19 52.9801C104.678 52.7161 103.526 52.1761 102.734 51.3601C101.942 50.5441 101.546 49.4761 101.546 48.1561C101.546 46.9561 101.882 45.9241 102.554 45.0601C103.226 44.1961 104.15 43.5241 105.326 43.0441C106.502 42.5641 107.858 42.3241 109.394 42.3241C110.666 42.3241 111.902 42.4921 113.102 42.8281C114.302 43.1401 115.334 43.6441 116.198 44.3401L114.83 47.8321C114.11 47.3041 113.246 46.8721 112.238 46.5361C111.254 46.2001 110.33 46.0321 109.466 46.0321C108.386 46.0321 107.606 46.2121 107.126 46.5721C106.646 46.9081 106.406 47.3401 106.406 47.8681C106.406 48.7081 106.97 49.2361 108.098 49.4521L111.878 50.1361C113.438 50.4001 114.626 50.9281 115.442 51.7201C116.258 52.4881 116.666 53.5441 116.666 54.8881C116.666 56.7361 115.946 58.1761 114.506 59.2081C113.066 60.2401 111.17 60.7561 108.818 60.7561Z" fill="#0288D1"/>
</svg>
